#!OML:ASF H:\LiuWeirdWalks\Patient Classification 1\Patient 1\Session 1\male.ASF
:FULLY-SPECIFIED
:DEGREES
614
root 0.437573 17.3463 37.7294 -1.96614 0.600913 -10.8733
lowerback 10.0857 0.332136 5.5805
upperback -0.149093 1.3219 3.67381
thorax -5.79404 0.542751 0.518323
lowerneck -21.8041 1.10974 6.87505
upperneck 23.5612 0.614641 -5.1757
head 11.3071 0.233533 -2.96147
rclavicle -3.82039e-015 -2.62396e-014
rhumerus -45.7008 0.371463 -80.5256
rradius 35.4902
rwrist -8.90065
rhand -17.5756 -1.38369
rfingers 7.12502
rthumb 8.67986 -31.1852
lclavicle -3.82039e-015 -2.62396e-014
lhumerus -44.6494 4.39865 74.4193
lradius 32.6568
lwrist 3.03477
lhand -14.4621 -6.2926
lfingers 7.12502
lthumb 11.6836 23.3616
rfemur -14.9642 -11.339 24.1941
rtibia 82.8493
rfoot -4.83297 -13.776
rtoes -9.69622
lfemur -21.8963 -0.963396 -15.4503
ltibia 46.6951
lfoot -9.47055 15.8032
ltoes 0.369101
615
root 0.434339 17.3993 37.7872 -2.08502 0.510308 -10.9299
lowerback 10.084 0.304343 5.7033
upperback -0.108403 1.30024 3.73715
thorax -5.74997 0.530822 0.519434
lowerneck -21.7984 1.09539 6.89539
upperneck 23.4511 0.60342 -5.24215
head 11.2638 0.220243 -2.98862
rclavicle 1.08089e-015 2.78299e-015
rhumerus -45.7875 0.838458 -80.8314
rradius 36.3134
rwrist -8.51676
rhand -17.4291 -1.13648
rfingers 7.12502
rthumb 8.82128 -30.9321
lclavicle 1.08089e-015 2.78299e-015
lhumerus -44.4052 3.8073 75.388
lradius 33.0122
lwrist 3.01552
lhand -14.0587 -6.88549
lfingers 7.12502
lthumb 12.0725 22.7463
rfemur -15.1539 -11.5799 24.4499
rtibia 81.951
rfoot -5.23518 -13.5843
rtoes -10.0377
lfemur -21.0579 -1.33587 -15.3704
ltibia 45.8448
lfoot -9.08655 16.046
ltoes 0.486594
616
root 0.428656 17.4546 37.8436 -2.23865 0.41234 -11.001
lowerback 10.1204 0.276763 5.77731
upperback -0.0690406 1.27842 3.83241
thorax -5.73063 0.520214 0.581174
lowerneck -21.773 1.08056 6.897
upperneck 23.3524 0.600711 -5.31237
head 11.2216 0.208961 -3.01275
rclavicle 7.31155e-015 -1.89839e-014
rhumerus -45.8558 1.21945 -81.031
rradius 37.0193
rwrist -8.07966
rhand -17.5367 -1.03476
rfingers 7.12502
rthumb 8.7174 -30.8348
lclavicle 7.31155e-015 -1.89839e-014
lhumerus -44.2365 3.24773 76.3442
lradius 33.4594
lwrist 2.94109
lhand -13.792 -7.51973
lfingers 7.12502
lthumb 12.3297 22.0967
rfemur -15.2942 -11.7906 24.7231
rtibia 81.0993
rfoot -5.61472 -13.4166
rtoes -10.3016
lfemur -20.15 -1.64819 -15.2658
ltibia 44.9238
lfoot -8.6764 16.2297
ltoes 0.682616
617
root 0.422114 17.511 37.8987 -2.43566 0.289519 -11.0746
lowerback 10.2011 0.248641 5.80969
upperback -0.0216639 1.25575 3.95041
thorax -5.72924 0.510426 0.689968
lowerneck -21.748 1.0735 6.88273
upperneck 23.2896 0.612071 -5.37117
head 11.1939 0.20456 -3.02864
rclavicle 1.27409e-014 4.42296e-014
rhumerus -45.8867 1.52819 -81.1366
rradius 37.5979
rwrist -7.63993
rhand -17.8076 -1.07228
rfingers 7.12502
rthumb 8.45602 -30.883
lclavicle 1.27409e-014 4.42296e-014
lhumerus -44.1299 2.73207 77.2783
lradius 33.9924
lwrist 2.89493
lhand -13.6988 -8.18578
lfingers 7.12502
lthumb 12.4195 21.4253
rfemur -15.3755 -11.9578 24.9827
rtibia 80.3111
rfoot -5.9746 -13.2459
rtoes -10.5081
lfemur -19.1704 -1.89681 -15.1561
ltibia 43.9517
lfoot -8.26375 16.3699
ltoes 0.92314
618
root 0.414892 17.5672 37.9518 -2.64663 0.160195 -11.1548
lowerback 10.2986 0.218995 5.83331
upperback 0.0289753 1.23182 4.0761
thorax -5.73413 0.500264 0.811993
lowerneck -21.7414 1.07712 6.87068
upperneck 23.2609 0.633612 -5.41709
head 11.1834 0.206907 -3.03955
rclavicle 3.74119e-015 2.1916e-014
rhumerus -45.8698 1.75423 -81.1723
rradius 38.0432
rwrist -7.31166
rhand -18.2193 -1.15559
rfingers 7.12502
rthumb 8.05869 -30.9819
lclavicle 3.74119e-015 2.1916e-014
lhumerus -44.0568 2.23691 78.1754
lradius 34.592
lwrist 2.91953
lhand -13.7212 -8.83645
lfingers 7.12502
lthumb 12.3979 20.7759
rfemur -15.4365 -12.1004 25.2388
rtibia 79.6024
rfoot -6.28922 -13.0791
rtoes -10.7282
lfemur -18.1708 -2.09498 -15.0383
ltibia 42.9513
lfoot -7.85634 16.4658
ltoes 1.15429
619
root 0.407842 17.622 38.003 -2.8611 0.026183 -11.2241
lowerback 10.4026 0.193912 5.86558
upperback 0.0845913 1.21454 4.18942
thorax -5.73661 0.493024 0.915251
lowerneck -21.7703 1.08053 6.85018
upperneck 23.2736 0.648975 -5.43656
head 11.1948 0.209255 -3.04155
rclavicle -5.85677e-015 -3.79058e-014
rhumerus -45.802 1.86171 -81.1393
rradius 38.3678
rwrist -7.13289
rhand -18.679 -1.24739
rfingers 7.12502
rthumb 7.61504 -31.0903
lclavicle -5.85677e-015 -3.79058e-014
lhumerus -43.9897 1.74143 79.024
lradius 35.2429
lwrist 3.02436
lhand -13.7943 -9.42349
lfingers 7.12502
lthumb 12.3275 20.1931
rfemur -15.5012 -12.2268 25.4649
rtibia 79.0012
rfoot -6.56086 -12.9051
rtoes -11.002
lfemur -17.1699 -2.24737 -14.9342
ltibia 41.9343
lfoot -7.46444 16.5226
ltoes 1.32229
